<mxfile host="app.diagrams.net" modified="2023-09-06T03:53:46.840Z" agent="Mozilla/5.0 (Windows NT 10.0; Win64; x64) AppleWebKit/537.36 (KHTML, like Gecko) Chrome/116.0.0.0 Safari/537.36" version="21.3.7" etag="00neAJubqXQuEcf5TIy4" type="github">
  <diagram name="Page-1" id="qf69ctjOwjNtI3EhJbUA">
    <mxGraphModel>
      <root>
        <mxCell id="0" />
        <mxCell id="1" parent="0" />
      </root>
    </mxGraphModel>
  </diagram>
</mxfile>
